<svg width="10" height="10" viewBox="0 0 53 49" fill="none" xmlns="http://www.w3.org/2000/svg">
<g clip-path="url(#clip0)">
<path d="M50.2831 1.50732H6.07871C4.5651 1.50817 3.33808 2.64314 3.33838 4.04308V44.9113C3.33929 46.3107 4.56692 47.4451 6.08114 47.4448H29.8804V29.6799H23.4269V22.7265H29.8804V17.6093C29.8804 11.675 33.799 8.44505 39.5247 8.44505C42.2671 8.44505 44.6238 8.63403 45.3107 8.71842V14.9207H41.3625C38.2473 14.9207 37.6441 16.2893 37.6441 18.2979V22.7265H45.0924L44.1219 29.6799H37.6441V47.4448H50.2831C51.7976 47.4451 53.0256 46.3104 53.0259 44.9102C53.0259 44.9099 53.0259 44.9096 53.0259 44.9091V4.04084C53.0253 2.64146 51.7973 1.50704 50.2831 1.50732Z" fill="#C4A187"/>
</g>
<defs>
<clipPath id="clip0">
<rect width="53" height="49" fill="white"/>
</clipPath>
</defs>
</svg>
