<svg width="53" height="49" viewBox="0 0 53 49" fill="none" xmlns="http://www.w3.org/2000/svg">
<path fill-rule="evenodd" clip-rule="evenodd" d="M44.3205 8.1897C39.6451 3.88278 33.4272 1.50985 26.803 1.50732C13.1531 1.50732 2.04414 11.7285 2.03865 24.2911C2.03682 28.307 3.17701 32.2272 5.3442 35.6826L1.83093 47.4897L14.9589 44.3211C18.5762 46.1367 22.6485 47.0934 26.7929 47.0946H26.8033C40.4516 47.0946 51.5618 36.8726 51.567 24.3094C51.5697 18.2208 48.9963 12.4963 44.3205 8.1897ZM26.803 43.2465H26.7944C23.1012 43.2451 19.479 42.3319 16.3184 40.6067L15.5671 40.1961L7.77677 42.0765L9.85613 35.0879L9.36656 34.3714C7.30612 31.356 6.2181 27.8709 6.21993 24.2925C6.2242 13.8508 15.4579 5.35566 26.8112 5.35566C32.309 5.35734 37.477 7.32978 41.363 10.9095C45.249 14.4893 47.3879 19.2475 47.386 24.308C47.3812 34.7505 38.1481 43.2465 26.803 43.2465ZM38.0932 29.0625C37.4746 28.7774 34.4323 27.4005 33.8649 27.2102C33.2982 27.0202 32.8852 26.9256 32.4731 27.4954C32.0604 28.0651 30.8748 29.3477 30.5136 29.7274C30.1525 30.1074 29.7919 30.1551 29.173 29.87C28.5541 29.5851 26.5605 28.9837 24.1969 27.0441C22.3576 25.5344 21.1158 23.67 20.7547 23.1003C20.3941 22.53 20.7516 22.2516 21.0261 21.9384C21.696 21.1731 22.3667 20.3707 22.5729 19.9909C22.7794 19.6109 22.676 19.2784 22.521 18.9935C22.3667 18.7086 21.1292 15.9063 20.6137 14.766C20.111 13.6563 19.6014 13.8062 19.2213 13.7888C18.8608 13.7722 18.4481 13.7688 18.0354 13.7688C17.623 13.7688 16.9525 13.9111 16.3852 14.4814C15.8181 15.0514 14.2198 16.4286 14.2198 19.2309C14.2198 22.0333 16.437 24.7404 16.7463 25.1205C17.0556 25.5005 21.1097 31.2511 27.3166 33.7169C28.793 34.304 29.9453 34.654 30.8442 34.9164C32.3267 35.3497 33.6752 35.2886 34.7415 35.1421C35.9305 34.9784 38.4021 33.7646 38.9182 32.4349C39.4337 31.1048 39.4337 29.9651 39.2788 29.7274C39.1244 29.49 38.7117 29.3477 38.0932 29.0625Z" fill="#C4A187"/>
</svg>
