<svg width="49" height="46" viewBox="0 0 49 46" fill="none" xmlns="http://www.w3.org/2000/svg">
<g clip-path="url(#clip0)">
<path d="M48.9614 13.5241C48.8466 11.08 48.4255 9.39963 47.8222 7.9436C47.1999 6.39805 46.2425 5.01433 44.9882 3.86404C43.7626 2.69584 42.2787 1.7881 40.6511 1.21313C39.0908 0.646931 37.3099 0.251682 34.7058 0.143918C32.0823 0.0270286 31.2494 0 24.5955 0C17.9415 0 17.1087 0.0270286 14.4949 0.134792C11.8908 0.242555 10.1005 0.638156 8.54961 1.204C6.90258 1.7881 5.42833 2.68671 4.20277 3.86404C2.95815 5.01433 1.9914 6.40718 1.37843 7.93482C0.775194 9.39963 0.354085 11.0708 0.239272 13.515C0.114734 15.9774 0.0859375 16.7591 0.0859375 23.0045C0.0859375 29.2499 0.114734 30.0316 0.229548 32.4849C0.344362 34.929 0.765844 36.6094 1.36908 38.0654C1.9914 39.6109 2.95815 40.9947 4.20277 42.1449C5.42833 43.3131 6.9123 44.2209 8.53989 44.7959C10.1005 45.3621 11.8811 45.7573 14.4855 45.8651C17.0989 45.9732 17.9322 45.9999 24.5861 45.9999C31.2401 45.9999 32.073 45.9732 34.6867 45.8651C37.2908 45.7573 39.0811 45.3621 40.632 44.7959C43.9257 43.6006 46.5297 41.1565 47.8032 38.0654C48.406 36.6006 48.8275 34.929 48.9423 32.4849C49.0571 30.0316 49.0859 29.2499 49.0859 23.0045C49.0859 16.7591 49.0762 15.9774 48.9614 13.5241ZM44.548 32.3051C44.4425 34.5517 44.0405 35.7648 43.7054 36.5735C42.8819 38.5775 41.1874 40.168 39.0523 40.9409C38.1906 41.2555 36.8888 41.6328 34.5046 41.7314C31.9196 41.8396 31.1443 41.8662 24.6052 41.8662C18.0661 41.8662 17.2811 41.8396 14.7054 41.7314C12.3119 41.6328 11.0194 41.2555 10.1578 40.9409C9.09526 40.5724 8.12813 39.9883 7.34313 39.2245C6.52934 38.4785 5.90703 37.5799 5.51434 36.5827C5.17925 35.7739 4.77722 34.5517 4.67213 32.3143C4.55694 29.888 4.52852 29.16 4.52852 23.0224C4.52852 16.8848 4.55694 16.148 4.67213 13.7309C4.77722 11.4843 5.17925 10.2712 5.51434 9.46246C5.90703 8.46486 6.52934 7.55748 7.35286 6.82033C8.1472 6.05651 9.10461 5.47241 10.1675 5.10419C11.0291 4.78968 12.3314 4.41233 14.7151 4.31334C17.3001 4.20558 18.0758 4.17855 24.6145 4.17855C31.1634 4.17855 31.9387 4.20558 34.5143 4.31334C36.9078 4.41233 38.2003 4.78968 39.062 5.10419C40.1245 5.47241 41.0916 6.05651 41.8766 6.82033C42.6904 7.56625 43.3127 8.46486 43.7054 9.46246C44.0405 10.2712 44.4425 11.4931 44.548 13.7309C44.6628 16.1571 44.6916 16.8848 44.6916 23.0224C44.6916 29.16 44.6628 29.8789 44.548 32.3051Z" fill="#C4A187"/>
<path d="M24.5908 11.1877C17.6417 11.1877 12.0034 16.4804 12.0034 23.0045C12.0034 29.5286 17.6417 34.8213 24.5908 34.8213C31.5404 34.8213 37.1783 29.5286 37.1783 23.0045C37.1783 16.4804 31.5404 11.1877 24.5908 11.1877ZM24.5908 30.6697C20.0826 30.6697 16.4257 27.2371 16.4257 23.0045C16.4257 18.7719 20.0826 15.3393 24.5908 15.3393C29.0995 15.3393 32.756 18.7719 32.756 23.0045C32.756 27.2371 29.0995 30.6697 24.5908 30.6697Z" fill="#C4A187"/>
<path d="M40.6148 10.7206C40.6148 12.244 39.299 13.4793 37.6759 13.4793C36.0531 13.4793 34.7373 12.244 34.7373 10.7206C34.7373 9.19681 36.0531 7.96191 37.6759 7.96191C39.299 7.96191 40.6148 9.19681 40.6148 10.7206Z" fill="#C4A187"/>
</g>
<defs>
<clipPath id="clip0">
<rect width="49" height="46" fill="white"/>
</clipPath>
</defs>
</svg>
