<svg width="125" height="69" viewBox="0 0 125 69" fill="none" xmlns="http://www.w3.org/2000/svg">
<g clip-path="url(#clip0)">
<path d="M84.2678 36.7996H83.1168L72.3337 18.8278C71.7198 17.8046 70.4028 17.4211 69.3354 17.9548L67.973 18.6359L61.7456 12.4085C61.2862 11.9492 60.6498 11.7045 60.0021 11.7385C59.3535 11.772 58.7465 12.0803 58.337 12.5844L49.6711 23.2501L49.6571 23.244C48.6971 22.8326 47.579 23.1211 46.9378 23.9455L36.9401 36.7996H35.7327C35.3282 36.7996 35.0002 37.1275 35.0002 37.532C35.0002 37.9365 35.3282 38.2645 35.7327 38.2645H84.2678C84.6723 38.2645 85.0002 37.9365 85.0002 37.532C85.0002 37.1275 84.6723 36.7996 84.2678 36.7996ZM59.474 13.508C59.6247 13.3226 59.839 13.2137 60.0777 13.2014C60.3157 13.189 60.5409 13.2753 60.7098 13.4442L67.0037 19.7381L66.6564 20.9255C66.5428 21.3138 66.7655 21.7205 67.1538 21.8341C67.2224 21.8542 67.2916 21.8638 67.3597 21.8638C67.6767 21.8638 67.9689 21.6563 68.0624 21.3368L68.4417 20.0395L69.9906 19.265C70.3775 19.0717 70.8551 19.2106 71.0777 19.5816L81.4085 36.7997H76.7134L66.2107 27.6669L67.163 24.4109C67.2766 24.0227 67.054 23.6159 66.6657 23.5023C66.2774 23.3889 65.8707 23.6114 65.7571 23.9997L64.9939 26.6089L59.9208 22.1975C59.0653 21.4535 57.8124 21.4405 56.9417 22.1662L53.6134 24.9396L51.0709 23.85L59.474 13.508ZM59.6838 36.7996L54.6399 25.9911L57.8795 23.2914C58.1953 23.0282 58.6496 23.033 58.9597 23.3027L74.4811 36.7996H59.6838ZM48.0941 24.8447C48.3266 24.5458 48.7322 24.4412 49.08 24.5904L53.1921 26.3527L58.0673 36.7996H44.8056L48.1152 30.8423C48.3117 30.4887 48.1842 30.0428 47.8306 29.8464C47.477 29.65 47.0311 29.7773 46.8347 30.131L43.1298 36.7996H38.7958L48.0941 24.8447Z" fill="#C4A187"/>
</g>
<path d="M96.3538 0.477051H23.4354C19.1279 0.477051 15.6227 3.98226 15.6227 8.28973V13.4981C15.6227 32.0818 25.8885 48.9364 42.4097 57.4835C43.6858 58.1398 45.2586 57.6449 45.9203 56.3636C46.5765 55.0875 46.0816 53.5147 44.8004 52.853C30.0188 45.2071 20.8311 30.1286 20.8311 13.4979V8.28949C20.8311 6.85195 21.9978 5.68518 23.4354 5.68518H96.3538C97.7913 5.68518 98.9581 6.85195 98.9581 8.28949V13.4979C98.9581 30.1284 89.7704 45.2069 74.9837 52.8477C73.7024 53.5091 73.2075 55.0821 73.8638 56.3582C74.3274 57.254 75.2388 57.7697 76.1815 57.7697C76.5877 57.7697 76.994 57.6759 77.3741 57.4779C93.9006 48.9359 104.166 32.0867 104.166 13.4976V8.28924C104.166 3.98226 100.661 0.477051 96.3538 0.477051Z" fill="#C4A187"/>
<path d="M119.599 54.1658C119.193 53.1919 118.245 52.5564 117.193 52.5564H2.60657C1.55454 52.5564 0.606518 53.1919 0.200258 54.1658C-0.206002 55.1397 0.0178807 56.2596 0.762771 57.0045L6.60153 62.8484C10.0496 66.2911 14.6225 68.1871 19.4925 68.1871H100.296C105.166 68.1871 109.745 66.2913 113.198 62.8484L119.037 57.0045C119.781 56.2596 120.005 55.1397 119.599 54.1658ZM109.51 59.1659C107.052 61.6242 103.776 62.9785 100.302 62.9785H19.4925C16.0185 62.9785 12.7423 61.6242 10.284 59.1659L8.88821 57.7701H110.906L109.51 59.1659Z" fill="#C4A187"/>
<path d="M119.964 12.7744C112.948 8.26381 101.739 13.1599 100.484 13.7276C99.1766 14.3265 98.5934 15.8682 99.1923 17.1808C99.7912 18.4933 101.328 19.0714 102.645 18.4725C105.156 17.3319 113.208 14.6287 117.146 17.1651C118.922 18.3058 119.792 20.5195 119.792 23.9153C119.792 34.3425 98.7599 40.6449 90.6398 42.197L88.796 42.5615C87.3846 42.8376 86.4678 44.2073 86.744 45.6189C86.9888 46.8584 88.0772 47.7178 89.296 47.7178C89.4628 47.7178 89.6293 47.7022 89.8012 47.6658L91.6293 47.3065C92.9939 47.046 125 40.7699 125 23.9153C125 18.6757 123.302 14.9307 119.964 12.7744Z" fill="#C4A187"/>
<path d="M119.964 12.7744C112.948 8.26381 101.739 13.1599 100.484 13.7276C99.1766 14.3265 98.5934 15.8682 99.1923 17.1808C99.7912 18.4933 101.328 19.0714 102.645 18.4725C105.156 17.3319 113.208 14.6287 117.146 17.1651C118.922 18.3058 119.792 20.5195 119.792 23.9153C119.792 34.3425 98.7599 40.6449 90.6398 42.197L88.796 42.5615C87.3846 42.8376 86.4678 44.2073 86.744 45.6189C86.9888 46.8584 88.0772 47.7178 89.296 47.7178C89.4628 47.7178 89.6293 47.7022 89.8012 47.6658L91.6293 47.3065C92.9939 47.046 125 40.7699 125 23.9153C125 18.6757 123.302 14.9307 119.964 12.7744Z" stroke="#C4A187"/>
<defs>
<clipPath id="clip0">
<rect width="50" height="50" fill="white" transform="translate(35.0002)"/>
</clipPath>
</defs>
</svg>
