<svg width="25" height="25" viewBox="0 0 25 25" fill="none" xmlns="http://www.w3.org/2000/svg">
<g clip-path="url(#clip0)">
<path d="M22.0343 17.3122C25.9894 13.357 25.9893 6.92137 22.0343 2.96616C18.0791 -0.989045 11.6435 -0.989045 7.68841 2.96616C4.33295 6.32161 3.82477 11.312 6.16249 15.209C6.16249 15.209 6.33041 15.4907 6.10362 15.7173C4.80981 17.0111 0.92813 20.8928 0.92813 20.8928C-0.102006 21.9229 -0.347238 23.3633 0.566282 24.277L0.723569 24.4341C1.63709 25.3478 3.07756 25.1026 4.10761 24.0725C4.10761 24.0725 7.98107 20.1989 9.27223 18.9079C9.50989 18.6702 9.79152 18.8381 9.79152 18.8381C13.6884 21.1758 18.6788 20.6677 22.0343 17.3122ZM9.56119 15.4393C6.6387 12.5168 6.63878 7.76168 9.56127 4.83919C12.4838 1.91678 17.2389 1.91669 20.1613 4.83919C23.0838 7.7616 23.0838 12.5168 20.1613 15.4393C17.2389 18.3617 12.4838 18.3617 9.56119 15.4393Z" fill="#C4A187"/>
<path d="M10.2081 9.53749C10.072 9.53749 9.93376 9.51075 9.80047 9.45446C9.26805 9.22912 9.01895 8.61479 9.24429 8.08228C10.6606 4.73529 14.5357 3.16459 17.8827 4.5809C18.4151 4.80624 18.6642 5.42057 18.4388 5.95307C18.2134 6.48558 17.5993 6.73451 17.0666 6.50925C14.7831 5.54298 12.1389 6.61468 11.1727 8.89819C11.0037 9.29757 10.616 9.53749 10.2081 9.53749Z" fill="#C4A187"/>
</g>
<defs>
<clipPath id="clip0">
<rect width="25" height="25" fill="white"/>
</clipPath>
</defs>
</svg>
