<svg width="295" height="49" viewBox="0 0 295 49" fill="none" xmlns="http://www.w3.org/2000/svg">
<g clip-path="url(#clip0)">
<path d="M294.961 16.5241C294.847 14.08 294.425 12.3996 293.822 10.9436C293.2 9.39805 292.243 8.01433 290.988 6.86404C289.763 5.69584 288.279 4.7881 286.651 4.21313C285.091 3.64693 283.31 3.25168 280.706 3.14392C278.082 3.02703 277.249 3 270.595 3C263.942 3 263.109 3.02703 260.495 3.13479C257.891 3.24256 256.101 3.63816 254.55 4.204C252.903 4.7881 251.428 5.68671 250.203 6.86404C248.958 8.01433 247.991 9.40718 247.378 10.9348C246.775 12.3996 246.354 14.0708 246.239 16.515C246.115 18.9774 246.086 19.7591 246.086 26.0045C246.086 32.2499 246.115 33.0316 246.23 35.4849C246.344 37.929 246.766 39.6094 247.369 41.0654C247.991 42.6109 248.958 43.9947 250.203 45.1449C251.428 46.3131 252.912 47.2209 254.54 47.7959C256.101 48.3621 257.881 48.7573 260.486 48.8651C263.099 48.9732 263.932 48.9999 270.586 48.9999C277.24 48.9999 278.073 48.9732 280.687 48.8651C283.291 48.7573 285.081 48.3621 286.632 47.7959C289.926 46.6006 292.53 44.1565 293.803 41.0654C294.406 39.6006 294.828 37.929 294.942 35.4849C295.057 33.0316 295.086 32.2499 295.086 26.0045C295.086 19.7591 295.076 18.9774 294.961 16.5241ZM290.548 35.3051C290.443 37.5517 290.04 38.7648 289.705 39.5735C288.882 41.5775 287.187 43.168 285.052 43.9409C284.191 44.2555 282.889 44.6328 280.505 44.7314C277.92 44.8396 277.144 44.8662 270.605 44.8662C264.066 44.8662 263.281 44.8396 260.705 44.7314C258.312 44.6328 257.019 44.2555 256.158 43.9409C255.095 43.5724 254.128 42.9883 253.343 42.2245C252.529 41.4785 251.907 40.5799 251.514 39.5827C251.179 38.7739 250.777 37.5517 250.672 35.3143C250.557 32.888 250.529 32.16 250.529 26.0224C250.529 19.8848 250.557 19.148 250.672 16.7309C250.777 14.4843 251.179 13.2712 251.514 12.4625C251.907 11.4649 252.529 10.5575 253.353 9.82033C254.147 9.05651 255.105 8.47241 256.167 8.10419C257.029 7.78968 258.331 7.41233 260.715 7.31334C263.3 7.20558 264.076 7.17855 270.615 7.17855C277.163 7.17855 277.939 7.20558 280.514 7.31334C282.908 7.41233 284.2 7.78968 285.062 8.10419C286.124 8.47241 287.092 9.05651 287.877 9.82033C288.69 10.5663 289.313 11.4649 289.705 12.4625C290.04 13.2712 290.443 14.4931 290.548 16.7309C290.663 19.1571 290.692 19.8848 290.692 26.0224C290.692 32.16 290.663 32.8789 290.548 35.3051Z" fill="#C4A187"/>
<path d="M270.591 14.1877C263.642 14.1877 258.003 19.4804 258.003 26.0045C258.003 32.5286 263.642 37.8213 270.591 37.8213C277.54 37.8213 283.178 32.5286 283.178 26.0045C283.178 19.4804 277.54 14.1877 270.591 14.1877ZM270.591 33.6697C266.083 33.6697 262.426 30.2371 262.426 26.0045C262.426 21.7719 266.083 18.3393 270.591 18.3393C275.099 18.3393 278.756 21.7719 278.756 26.0045C278.756 30.2371 275.099 33.6697 270.591 33.6697Z" fill="#C4A187"/>
<path d="M286.615 13.7206C286.615 15.244 285.299 16.4793 283.676 16.4793C282.053 16.4793 280.737 15.244 280.737 13.7206C280.737 12.1968 282.053 10.9619 283.676 10.9619C285.299 10.9619 286.615 12.1968 286.615 13.7206Z" fill="#C4A187"/>
</g>
<path fill-rule="evenodd" clip-rule="evenodd" d="M196.321 8.1897C191.645 3.88278 185.427 1.50985 178.803 1.50732C165.153 1.50732 154.044 11.7285 154.039 24.2911C154.037 28.307 155.177 32.2272 157.344 35.6826L153.831 47.4897L166.959 44.3211C170.576 46.1367 174.649 47.0934 178.793 47.0946H178.803C192.452 47.0946 203.562 36.8726 203.567 24.3094C203.57 18.2208 200.996 12.4963 196.321 8.1897ZM178.803 43.2465H178.794C175.101 43.2451 171.479 42.3319 168.318 40.6067L167.567 40.1961L159.777 42.0765L161.856 35.0879L161.367 34.3714C159.306 31.356 158.218 27.8709 158.22 24.2925C158.224 13.8508 167.458 5.35566 178.811 5.35566C184.309 5.35734 189.477 7.32978 193.363 10.9095C197.249 14.4893 199.388 19.2475 199.386 24.308C199.381 34.7505 190.148 43.2465 178.803 43.2465ZM190.093 29.0625C189.475 28.7774 186.432 27.4005 185.865 27.2102C185.298 27.0202 184.885 26.9256 184.473 27.4954C184.06 28.0651 182.875 29.3477 182.514 29.7274C182.152 30.1074 181.792 30.1551 181.173 29.87C180.554 29.5851 178.56 28.9837 176.197 27.0441C174.358 25.5344 173.116 23.67 172.755 23.1003C172.394 22.53 172.752 22.2516 173.026 21.9384C173.696 21.1731 174.367 20.3707 174.573 19.9909C174.779 19.6109 174.676 19.2784 174.521 18.9935C174.367 18.7086 173.129 15.9063 172.614 14.766C172.111 13.6563 171.601 13.8062 171.221 13.7888C170.861 13.7722 170.448 13.7688 170.035 13.7688C169.623 13.7688 168.953 13.9111 168.385 14.4814C167.818 15.0514 166.22 16.4286 166.22 19.2309C166.22 22.0333 168.437 24.7404 168.746 25.1205C169.056 25.5005 173.11 31.2511 179.317 33.7169C180.793 34.304 181.945 34.654 182.844 34.9164C184.327 35.3497 185.675 35.2886 186.742 35.1421C187.931 34.9784 190.402 33.7646 190.918 32.4349C191.434 31.1048 191.434 29.9651 191.279 29.7274C191.124 29.49 190.712 29.3477 190.093 29.0625Z" fill="#C4A187"/>
<path d="M115.99 38.2039C115.083 38.6109 113.35 38.9657 112.057 38.9961C108.154 39.0944 107.397 36.4129 107.365 34.4686V20.1679H117.155V13.2124H107.399V1.51025C107.399 1.51025 100.374 1.51025 100.259 1.51025C100.142 1.51025 99.9371 1.60746 99.9079 1.85299C99.4903 5.43456 97.7116 11.7204 90.3159 14.2338V20.1676H95.25V35.1766C95.25 40.3162 99.2726 47.6173 109.893 47.4448C113.476 47.3869 117.456 45.9738 118.335 44.7537L115.99 38.2039Z" fill="#C4A187"/>
<g clip-path="url(#clip1)">
<path d="M50.2831 1.50732H6.07871C4.5651 1.50817 3.33808 2.64314 3.33838 4.04308V44.9113C3.33929 46.3107 4.56692 47.4451 6.08114 47.4448H29.8804V29.6799H23.4269V22.7265H29.8804V17.6093C29.8804 11.675 33.799 8.44505 39.5247 8.44505C42.2671 8.44505 44.6238 8.63403 45.3107 8.71842V14.9207H41.3625C38.2473 14.9207 37.6441 16.2893 37.6441 18.2979V22.7265H45.0924L44.1219 29.6799H37.6441V47.4448H50.2831C51.7976 47.4451 53.0256 46.3104 53.0259 44.9102C53.0259 44.9099 53.0259 44.9096 53.0259 44.9091V4.04084C53.0253 2.64146 51.7973 1.50704 50.2831 1.50732Z" fill="#C4A187"/>
</g>
<defs>
<clipPath id="clip0">
<rect width="49" height="46" fill="white" transform="translate(246 3)"/>
</clipPath>
<clipPath id="clip1">
<rect width="53" height="49" fill="white"/>
</clipPath>
</defs>
</svg>
